<?xml version="1.0" encoding="utf-8"?>
<!-- Generator: Adobe Illustrator 19.2.0, SVG Export Plug-In . SVG Version: 6.00 Build 0)  -->
<svg version="1.1" id="Layer_1" xmlns="http://www.w3.org/2000/svg" xmlns:xlink="http://www.w3.org/1999/xlink" x="0px" y="0px"
	 viewBox="0 0 500 141" style="enable-background:new 0 0 500 141;" xml:space="preserve">
<style type="text/css">
	.st0{fill:#fafafa;}
	.st1{fill:none;stroke:#fafafa;stroke-width:5;stroke-linecap:round;stroke-miterlimit:10;}
</style>
<g>
	<path class="st0" d="M2.5,66.6c-1.5,0-2.5-1-2.5-2.4c0-0.6,0.3-1.3,0.8-2c12-11,25.1-21.3,39-29.7c-0.1-5.5-1.7-18.1,3.1-20.1
		c6.1-2.5,11.9,6.6,15.6,10.1c5.9-2.4,13.5-5.2,19-5.3c7.8-0.3,11.4,2.8,12.2,10.2c0.9,8-1.1,17.6-8.4,16.1
		c-9.5-1.9-17.6-9.3-23.8-14.8c-4.3,2.1-8.4,4.5-12.4,6.8c3.1,27.1,5.1,42.2,8.8,57.3c1.7,7.2,3.9,14.6,7.7,20.8
		c2.9,4.7,4.5,4.9,6.7,0.3C76.5,97,80.5,77.2,93.7,62.2c0.6-0.4,1.2-0.6,1.7-0.6c1.4,0,2.5,1.1,2.5,2.5c0,0.5-0.2,1-0.4,1.6
		c-10.4,11.2-14.7,27-20.3,40.8c-2,5-5.7,18-12.3,18c-6.8,0-11.8-14.7-14-22.2c-6-20.6-8.6-42.1-10.6-63.4c0-0.2-0.1-0.4-0.1-0.6
		c-13,8.1-25.1,17.6-36.4,28C3.4,66.6,3,66.6,2.5,66.6z M44.8,29.7c2.9-1.7,5.7-3.1,8.9-4.8c-2.4-2-6.2-7.2-8.1-6.1
		C44.5,19.3,44.6,26,44.8,29.7z M62.6,26.3c4.8,4.4,9.2,7.8,15.5,10.1c4,1.5,6.2-4.7,5.2-8.8c-1.3-5.7-5.9-4.8-10.3-4.1
		C69.3,24.1,66,24.9,62.6,26.3z"/>
	<path class="st0" d="M95.5,66.6c-1.4,0-2.5-1.1-2.5-2.4c0-4.1,10-8.7,14.5-8.7c3.8,0,7.1,1.4,9.8,3.6c6.6-1.6,13.2-2.5,18.3-3.6
		l1.6-0.3c2.8-4.5,6.5-7.7,10.9-7.7c2.2,0,5.3,1.4,5.3,4.7c0,3.9-6.7,6.1-9.5,6.8l-3.1,0.8c-0.9,1.7-1.6,3.4-1.9,4.6
		c-1.2,3.9-2.1,8.4-2.1,12.8c0,9.4,5,18.5,14.9,18.5c10.2,0,15.9-11.1,17-21.1c-1,0.2-2,0.3-3.1,0.3c-7.2,0-13.9-5.7-13.9-13.3
		c0-6,4.3-10.8,10-10.8c8.9,0,11.6,8.7,12.2,15.8c2.1-1.4,4-3.1,5.7-4.5c0.6-0.4,1.2-0.6,1.7-0.6c1.4,0,2.5,1.1,2.5,2.5
		c0,0.5-0.2,1-0.4,1.6c-2.8,2.8-5.9,5.4-9.4,7.2c-0.7,13.3-6.8,28.4-23.3,28.4c-12.3,0-19.3-12.9-19.3-24.7c0-4.9,1-10.5,2.8-15.5
		c-4.3,0.8-8.7,1.5-13.1,2.4c2.7,4.1,4.2,9.2,4.2,14c0,11.7-8.5,19.1-18.9,19.4c-8.6,0.3-15.1-4.5-15.1-14.5c0-4.1,1.8-8.3,4-11.7
		c2.9-4.5,8.1-7.4,14.2-9.5c-0.7-0.2-1.5-0.3-2.3-0.3c-3.8,0-7.1,2.2-9.8,4.7C96.9,66.4,96.1,66.6,95.5,66.6z M115.6,64.9
		c-10.5,2.9-18.9,7.5-18.9,17.4c0,5.2,3.8,8.7,9.1,8.7c9.7,0,14.2-7.1,14.5-13.3C120.5,73.1,118.5,68.2,115.6,64.9z M169,69.3
		c-0.2-5-1.3-13.2-7.3-13.2c-2.9,0-4.7,2.9-4.7,5.9c0,5.2,5.2,7.8,8.7,7.8C166.8,69.8,168,69.6,169,69.3z"/>
	<path class="st0" d="M178.3,36.2c0-1.3,1-2.4,2.8-2.4h0.3c3.2,1.1,6.7,1.7,10.3,2c0.1-4.5,0.3-9,1-13.5C193.7,16.6,195,7,201.9,7
		c3.8,0,6.7,3.8,6.7,9.4c0.1,6.6-2.2,13.4-5.1,19.7c7.4-0.3,14.7-1.7,21.8-4.2c0.3-0.1,0.6-0.1,1-0.1c1.6,0,2.6,1.1,2.6,2.4
		c0,5.1-20.7,7.1-28,7.1c-1.2,2.3-2.5,4.5-3.8,6.6c0.3,11.7,0.2,22,2.4,33.6c0.9,4.8,4.5,12.2,9.8,12.2
		c10.2-0.8,18.2-15.7,22.4-25.5c0.2-8-6.1-59.4,8.8-59.4c6.1,0,7.3,7.1,7.3,12.8c0,11.3-5.2,32.5-10.7,46.8c0,1.7,0.1,1.8,0.1,2
		c3.1,30.4,0.6,3.9,5.6-5.9c1.9-3.9,4.6-5.6,7.4-5.6c9.1,0,10.1,9.7,10.6,19.9c0.8,17.1,5.4,5.7,8.3-1.8c2.1-5.7,5.2-10.3,9.2-14.8
		c0.6-0.4,1.2-0.6,1.7-0.6c1.4,0,2.5,1.1,2.5,2.5c0,0.5-0.2,1-0.4,1.6c-3.7,4-6.4,8.2-8.3,13.4c-1.8,5-4.9,17.4-12.1,17.4
		c-5,0-6.2-9.4-6.2-20.4c-0.2-2.9-0.9-11.1-5-11.8c-9.6-1.6-2.4,40.2-10.7,40.2c-5,0-6.1-16.4-7.2-25.9
		c-4.4,8.7-13.2,22.5-24.3,22.5c-17.2,0-15.4-34.5-16.2-45.7c-2.5,3.6-5.3,7-8.4,10.3c-0.7,0.7-1.5,1-2.1,1c-1.4,0-2.5-1.1-2.5-2.4
		c0-0.6,0.3-1.3,0.8-2c4.3-4.6,8.4-9.8,12-15.2V41c-4.2-0.4-8.2-1-12-2.3C178.7,38,178.3,37.1,178.3,36.2z M196.9,36.1h1
		C207.9,14.8,198.9,4.9,196.9,36.1z M236.1,54.9c1.5-4.7,2.6-9.4,3.6-13.8c5.2-23.4-3.8-35.5-3.8-3.3
		C235.9,43.6,235.9,49.2,236.1,54.9z"/>
	<path class="st0" d="M279.8,66.6c-1.4,0-2.5-1.1-2.5-2.4c0-1.8,3.1-4.3,5.4-6.7c0.2-6.4,1.5-23.2,11.2-23.2c3.1,0,5.9,1.7,5.9,5.5
		c0,3.6-2.6,7.8-4.6,10.7c2.7-2.2,7-5.2,11.7-5.2c10.7,0,16.1,9.4,16.1,16.6c0,2.4-0.3,4.6-0.5,6.7c2.5-2.1,6.7-7,8.7-7
		c1.4,0,2.5,1.1,2.5,2.5c0,0.5-0.2,1-0.4,1.6c-3.8,3.8-8.1,7.3-12.4,10.7c-1.9,7.1-7.8,22-15.3,22.9c-3.3,0.4-8.1-1.7-7.6-6.3
		c0.7-6.2,9.5-12.9,13.4-15.8l5.3-4c0.7-3,1-5.4,1.1-8.9c0.2-6.5-2.9-12.8-10-13c-9.6-0.3-15.4,10.7-19,18.6
		c2.2,13.1,8.2,24.8,8.2,38.7c0-0.5,1.2,30.6-9.7,32.4c-10.6,1.7-11.9-19.9-11.9-26.1c0-5,0.3-10.1,0.9-15.1c1-9,2.4-13.6,4.5-22.3
		c0.7-2.8,1.6-5.3,2.5-7.8l-0.5-4.9l-1,1C281.2,66.4,280.4,66.6,279.8,66.6z M285.4,79.8c-3.3,11.7-4.7,22.8-4.7,34
		c0,3.9,0.2,7.3,0.5,11c0.5,5.1,4.8,13.6,7.9,4.5c1.9-5.8,2.4-12.7,2.3-18.6c-0.2-11.4-3-19.9-5.7-30.2L285.4,79.8z M287.9,59.3
		c0,0.3,0.1,0.4,0.1,0.7l1-1.8L287.9,59.3z M288.3,51.1c2.5-3.1,4.3-4.8,5.3-8.2c1-3.1-1.5-3.1-2.6-1.2
		C289.4,44.5,288.9,47.4,288.3,51.1z M313.5,82l-0.3,0.3c-3.5,2.7-7.3,5.7-9.2,9.6c-0.8,2.5,3,1,4.1-0.4
		C310.5,88.3,311.8,85.9,313.5,82z"/>
	<path class="st0" d="M329.4,62.2c4.2-4,11.2-10.8,17.6-9.2c6.7,1.7,10.7,7.7,11.8,14.3c3.5-0.8,6.1-2.7,8.7-5.1
		c3.1-2,5.9,1.7,3.1,4.1c-3.8,3.5-7.4,5.2-11.5,6.1c0,3.6-1.7,14.4-4.1,17.8c-4,5.6-6.6,7.4-13.6,7c-9.4-0.6-13.7-13.8-9.6-20.7
		c5.2-8.8,13.5-7.9,21.8-8.5c-0.8-4.5-3.1-8.5-7.6-9.8c-5.2,0.2-8.9,3.8-12.8,7.5C330.5,68.2,327.1,65.1,329.4,62.2z M353.9,73.1
		c-1.2,0.2-2.5,0.2-3.8,0.3c-2.1,0.1-4.4,0.1-6.6,0.5c-11,2-10,18.5,1.2,17.7C353,89.4,353.4,80.7,353.9,73.1z"/>
	<path class="st0" d="M369.3,66.6c-1.4,0-2.5-1.1-2.5-2.4c0-0.6,0.3-1.3,0.8-2l4-3.9c-0.2-1.4-0.3-3-0.3-4.5
		c0-4.3,3.6-11.6,9.3-11.6c3.7,0,5.2,2.4,5.2,5.3c0,4.4-3.7,7.8-6.6,10.6l-1.9,1.8c1.6,4.9,4.9,8,8,11.6l0.2,0.3l0.5-0.3
		c4-2.2,7.3-5.4,10.6-8.6l0.8-0.8c0.6-0.4,1.2-0.6,1.7-0.6c1.4,0,2.5,1.1,2.5,2.5c0,0.5-0.2,1-0.4,1.6c-3.8,3.8-7.5,7.4-12.1,10.1
		c3.4,4.5,7,7.4,7,14c0,8.4-5.8,13.9-20.4,13.6c-7.9-0.2-14.6-3.4-14.6-10.2c0-8.3,11.4-14.6,19.7-18.9c-3-3.1-5.4-6.3-7.4-10.4
		l-1.9,1.8C370.7,66.4,369.9,66.6,369.3,66.6z M384.3,78.5c-3.1,1.6-5.2,2.7-8,4.5c-3.8,2.4-8.6,5-8.4,9.7c0.3,4.5,4.1,6,7.6,6.1
		c8.4,0.2,14.2-2.3,13.9-10.9C389.2,83.4,386.6,81.3,384.3,78.5z M376.6,53.4c0.2-0.2,2.8-2.2,3.8-4.2c0.5-0.9,0.6-2.4-0.7-1.3
		C377.9,49.4,376.9,51.3,376.6,53.4z"/>
	<path class="st0" d="M391.8,36.4c0-1.3,1-2.6,2.9-2.6c2.5,0,5.1,0.4,7.5,0.8c1.7,0.1,3.4,0.2,5.2,0.4c0.3-2.1,0.6-4.1,1-6.3
		c0-0.2,0.1-0.4,0.1-0.6c1.7-9.4,4.3-24.2,11.4-27.4c5-2.2,9.3,1.7,9.3,7.7c0,4.6-1.7,10.7-2.4,13.3c-1.6,4.8-3.4,9.4-5.5,13.8h3.4
		c8.9,0,17.7-0.5,26.6-1.7c1.8,0.2,2.8,1.3,2.8,2.6c0,1-0.6,2-1.9,2.5c-9.3,1.3-18.8,1.9-28.3,1.9h-5.2c-2.3,4.3-4.9,8.4-7.6,12.3
		v2.1c0,12.9,3.2,28.9,16.6,30.5c2.8,0.3,5.2,0.2,5.2,3.1c0,1.2-0.6,2.2-2.4,2.4c-3.3,0-5.2-0.2-8.3-1.5
		c-11.7-5.1-15.5-17.3-16.2-29.7c-1.4,1.8-2.9,3.6-4.4,5.3l-0.3,0.4c-0.7,0.7-1.5,1-2.1,1c-1.4,0-2.5-1.1-2.5-2.4
		c0-0.6,0.3-1.3,0.8-2c3-3.5,5.9-7.1,8.5-10.8c0.2-4,0.4-7.7,0.8-11.2c-4.2-0.3-8.4-0.7-12.6-1.2C392.5,38.6,391.8,37.4,391.8,36.4z
		 M411.5,42.7l1.2-2.2h-1C411.6,41.2,411.5,41.9,411.5,42.7z M412.3,35.2l3.1,0.2c1.4-2.8,2.7-5.6,3.9-8.5
		c2.2-5.3,4.1-10.8,4.5-17.1c0.3-5.1-2.7-4.3-4.7-0.4c-2.1,4-3.2,8.2-4.3,12.8C413.8,26.6,412.9,30.8,412.3,35.2z"/>
	<path class="st0" d="M427.6,88.5c0-1.1,0.7-2.2,2.3-2.6c3.4-0.2,6.9-0.6,10.3-1.2c0-10.7,5.5-22,12.7-29c3.7-3.6,11.2-8.5,16.9-8.8
		c8.5-0.5,9.9,6.3,9.9,12.2c0,1.7-0.3,3.4-1,5c-5.6,13.7-19.2,21-32.4,24.7c1.9,4.8,6.8,7.8,12.7,7.8c7.5,0,13.6-7.2,18.6-13
		c6-7.2,11.7-14.5,18.2-21.3c0.6-0.4,1.2-0.6,1.7-0.6c1.4,0,2.5,1.1,2.5,2.5c0,0.5-0.2,1-0.4,1.6c-6.5,6.9-12.1,14.3-18.2,21.3
		c-5.9,6.9-12.9,15-22.4,14.8c-10-0.2-15.3-4.6-17.9-11.8c-3.9,0.9-7.4,0.9-11.3,1.1C428.3,90.8,427.6,89.7,427.6,88.5z M445.5,83.5
		c11.8-3.1,28.7-12.2,28.7-24.8c0-3-1.7-6.3-5-5.8C456.3,55,446.1,71.1,445.5,83.5z"/>
</g>
<path class="st1" d="M83.6,132.6c0,0,180.9-26.3,376.3-12.1"/>
</svg>
